TITLE ""
FILE "Disc1Track39.mp3" MP3
  TRACK 01 AUDIO
    TITLE "Disc1Track39_01"
    INDEX 01 00:00:00
  TRACK 02 AUDIO
    TITLE "Disc1Track39_02"
    INDEX 01 00:04:45
  TRACK 03 AUDIO
    TITLE "Disc1Track39_03"
    INDEX 01 00:04:63
  TRACK 04 AUDIO
    TITLE "Disc1Track39_04"
    INDEX 01 00:06:19
  TRACK 05 AUDIO
    TITLE "Disc1Track39_05"
    INDEX 01 00:08:67
  TRACK 06 AUDIO
    TITLE "Disc1Track39_06"
    INDEX 01 00:10:20
  TRACK 07 AUDIO
    TITLE "Disc1Track39_07"
    INDEX 01 00:12:27
  TRACK 08 AUDIO
    TITLE "Disc1Track39_08"
    INDEX 01 00:12:59
  TRACK 09 AUDIO
    TITLE "Disc1Track39_09"
    INDEX 01 00:14:16
  TRACK 10 AUDIO
    TITLE "Disc1Track39_10"
    INDEX 01 00:15:47
  TRACK 11 AUDIO
    TITLE "Disc1Track39_11"
    INDEX 01 00:17:03
  TRACK 12 AUDIO
    TITLE "Disc1Track39_12"
    INDEX 01 00:20:52
  TRACK 13 AUDIO
    TITLE "Disc1Track39_13"
    INDEX 01 00:21:09
  TRACK 14 AUDIO
    TITLE "Disc1Track39_14"
    INDEX 01 00:22:43
  TRACK 15 AUDIO
    TITLE "Disc1Track39_15"
    INDEX 01 00:23:47
  TRACK 16 AUDIO
    TITLE "Disc1Track39_16"
    INDEX 01 00:25:08
  TRACK 17 AUDIO
    TITLE "Disc1Track39_17"
    INDEX 01 00:25:40
  TRACK 18 AUDIO
    TITLE "Disc1Track39_18"
    INDEX 01 00:26:66
  TRACK 19 AUDIO
    TITLE "Disc1Track39_19"
    INDEX 01 00:28:61
  TRACK 20 AUDIO
    TITLE "Disc1Track39_20"
    INDEX 01 00:30:09
  TRACK 21 AUDIO
    TITLE "Disc1Track39_21"
    INDEX 01 00:32:69
  TRACK 22 AUDIO
    TITLE "Disc1Track39_22"
    INDEX 01 00:33:27
  TRACK 23 AUDIO
    TITLE "Disc1Track39_23"
    INDEX 01 00:34:58
  TRACK 24 AUDIO
    TITLE "Disc1Track39_24"
    INDEX 01 00:35:73
  TRACK 25 AUDIO
    TITLE "Disc1Track39_25"
    INDEX 01 00:37:29
  TRACK 26 AUDIO
    TITLE "Disc1Track39_26"
    INDEX 01 00:39:24
  TRACK 27 AUDIO
    TITLE "Disc1Track39_27"
    INDEX 01 00:39:57
  TRACK 28 AUDIO
    TITLE "Disc1Track39_28"
    INDEX 01 00:41:13
  TRACK 29 AUDIO
    TITLE "Disc1Track39_29"
    INDEX 01 00:43:04
  TRACK 30 AUDIO
    TITLE "Disc1Track39_30"
    INDEX 01 00:44:35
  TRACK 31 AUDIO
    TITLE "Disc1Track39_31"
    INDEX 01 00:49:70
  TRACK 32 AUDIO
    TITLE "Disc1Track39_32"
    INDEX 01 00:50:26
  TRACK 33 AUDIO
    TITLE "Disc1Track39_33"
    INDEX 01 00:51:57
  TRACK 34 AUDIO
    TITLE "Disc1Track39_34"
    INDEX 01 00:55:39
  TRACK 35 AUDIO
    TITLE "Disc1Track39_35"
    INDEX 01 00:56:70
  TRACK 36 AUDIO
    TITLE "Disc1Track39_36"
    INDEX 01 00:58:55
  TRACK 37 AUDIO
    TITLE "Disc1Track39_37"
    INDEX 01 00:59:11
  TRACK 38 AUDIO
    TITLE "Disc1Track39_38"
    INDEX 01 01:00:48
  TRACK 39 AUDIO
    TITLE "Disc1Track39_39"
    INDEX 01 01:02:06
  TRACK 40 AUDIO
    TITLE "Disc1Track39_40"
    INDEX 01 01:03:42
  TRACK 41 AUDIO
    TITLE "Disc1Track39_41"
    INDEX 01 01:06:62
  TRACK 42 AUDIO
    TITLE "Disc1Track39_42"
    INDEX 01 01:07:18
  TRACK 43 AUDIO
    TITLE "Disc1Track39_43"
    INDEX 01 01:08:49
  TRACK 44 AUDIO
    TITLE "Disc1Track39_44"
    INDEX 01 01:09:60
  TRACK 45 AUDIO
    TITLE "Disc1Track39_45"
    INDEX 01 01:11:16
